<svg xmlns="http://www.w3.org/2000/svg" viewBox="0 0 90 66"><title>cru-sg-logo-white</title><path d="M19.3,49.63c-2.26,2.56-4.67,3.75-7.57,3.75A9.54,9.54,0,0,1,2.35,43.7v-.09A9.37,9.37,0,0,1,11.69,34a9.86,9.86,0,0,1,7.5,3.51l.48.51,1.68-1.56L20.86,36a11.81,11.81,0,0,0-9.13-4.21A11.55,11.55,0,0,0,3.37,35.3,11.94,11.94,0,0,0,0,43.66v.09a11.77,11.77,0,0,0,21,7.4l.44-.51-1.66-1.55Z" style="fill:#fff;opacity:0.9"/><path d="M28,36.38V32.28H25.68V55.12H28V43.32c0-3.88,3-9.29,8-9.29h.92V31.78h-.78A9.51,9.51,0,0,0,28,36.38" style="fill:#fff;opacity:0.9"/><path d="M56.82,32.28V45c0,5.31-2.74,8.35-7.53,8.35s-7.53-3-7.53-8.35V32.28H39.46V45.12c0,6.49,3.74,10.52,9.75,10.52h.17c6,0,9.75-4,9.75-10.52V32.28Z" style="fill:#fff;opacity:0.9"/><polygon points="74.51 0.03 74.51 15.35 89.98 15.35 89.98 17.58 72.27 17.58 72.27 0 74.51 0.03" style="fill:#fff;opacity:0.9"/><polygon points="67.26 15.35 67.26 4.57 69.5 4.57 69.5 17.58 56.25 17.58 56.25 15.35 67.26 15.35" style="fill:#fff;opacity:0.75"/><polygon points="85.41 20.32 85.41 22.55 74.51 22.55 74.51 44.17 72.27 44.17 72.27 20.32 85.41 20.32" style="fill:#fff;opacity:0.7000000000000001"/><polygon points="69.5 20.32 69.5 31.79 69.5 38.04 67.26 38.04 67.26 22.55 51.75 22.55 51.75 20.32 69.5 20.32" style="fill:#fff;opacity:0.9500000000000001"/><path d="M78.49,42.48v1.69H78.3V42.48h-.66V42.3h1.51v.18Z" style="fill:#595959"/><path d="M81,42.54l-.61,1.62h-.21l-.62-1.62,0,1.63h-.19l.06-1.86h.26L80.31,44l.62-1.65h.25l.06,1.86H81Z" style="fill:#595959"/><g style="opacity:0.9500000000000001"><path d="M28.16,61.18l-.77.67a1.09,1.09,0,0,0-.82-.56.5.5,0,0,0-.33.11.31.31,0,0,0-.13.24.42.42,0,0,0,.09.26,7.08,7.08,0,0,0,.76.7q.59.49.72.62a2.11,2.11,0,0,1,.44.61,1.48,1.48,0,0,1,.13.63,1.45,1.45,0,0,1-.46,1.1,1.69,1.69,0,0,1-1.21.44,1.81,1.81,0,0,1-1-.28,2.25,2.25,0,0,1-.74-.89l.87-.52q.39.72.9.72a.67.67,0,0,0,.45-.15.46.46,0,0,0,.18-.36.62.62,0,0,0-.14-.37,3.93,3.93,0,0,0-.6-.56,6.11,6.11,0,0,1-1.15-1.11,1.42,1.42,0,0,1-.26-.79,1.27,1.27,0,0,1,.43-1,1.5,1.5,0,0,1,1.07-.41,1.67,1.67,0,0,1,.77.19A2.82,2.82,0,0,1,28.16,61.18Z" style="fill:#fff;fill-rule:evenodd"/><rect x="32.05" y="60.44" width="1.03" height="5.42" style="fill:#fff"/><polygon points="37.13 60.44 38.13 60.44 40.46 64.01 40.46 60.44 41.5 60.44 41.5 65.86 40.5 65.86 38.17 62.3 38.17 65.86 37.13 65.86 37.13 60.44" style="fill:#fff;fill-rule:evenodd"/><path d="M50.65,61.32l-.73.72a2.16,2.16,0,0,0-1.62-.73,1.86,1.86,0,0,0-1.35.53,1.74,1.74,0,0,0-.54,1.29A1.78,1.78,0,0,0,47,64.47a1.92,1.92,0,0,0,1.39.55,1.7,1.7,0,0,0,.9-.22,1.58,1.58,0,0,0,.6-.7H48.29v-1H51v.23a2.65,2.65,0,0,1-.37,1.35,2.58,2.58,0,0,1-1,1,2.75,2.75,0,0,1-1.38.34,3.11,3.11,0,0,1-1.52-.36,2.72,2.72,0,0,1-1.05-1,2.91,2.91,0,0,1-.39-1.46,2.71,2.71,0,0,1,.71-1.87,2.82,2.82,0,0,1,2.21-.95,3.38,3.38,0,0,1,1.33.26A3,3,0,0,1,50.65,61.32Z" style="fill:#fff;fill-rule:evenodd"/><path d="M56.53,60.44h1.05l2.1,5.42H58.6l-.43-1.12H56l-.44,1.12H54.43Zm.53,1.44-.73,1.86h1.45Z" style="fill:#fff;fill-rule:evenodd"/><path d="M63.36,60.44h1.1a3.58,3.58,0,0,1,1.29.17,1.28,1.28,0,0,1,.62.53,1.61,1.61,0,0,1,.23.88,1.46,1.46,0,0,1-.3.94,1.54,1.54,0,0,1-.81.52,4.67,4.67,0,0,1-1.09.08v2.3h-1Zm1,2.12h.33a1.8,1.8,0,0,0,.54-.06.48.48,0,0,0,.24-.18.53.53,0,0,0,.09-.31.49.49,0,0,0-.24-.46,1.4,1.4,0,0,0-.66-.11H64.4Z" style="fill:#fff;fill-rule:evenodd"/><path d="M73.07,60.3a2.7,2.7,0,0,1,2,.83,2.76,2.76,0,0,1,.83,2,2.73,2.73,0,0,1-.82,2,2.85,2.85,0,0,1-4,0,2.85,2.85,0,0,1,2-4.85Zm0,1a1.71,1.71,0,0,0-1.27.52,1.82,1.82,0,0,0-.52,1.33,1.73,1.73,0,0,0,.65,1.42,1.78,1.78,0,0,0,1.16.41,1.69,1.69,0,0,0,1.26-.53,1.91,1.91,0,0,0,0-2.62A1.71,1.71,0,0,0,73.05,61.31Z" style="fill:#fff;fill-rule:evenodd"/><path d="M79.81,60.44h1.1a3.61,3.61,0,0,1,1.29.16,1.31,1.31,0,0,1,.62.53A1.63,1.63,0,0,1,83,62a1.5,1.5,0,0,1-.26.9,1.55,1.55,0,0,1-.77.54l1.29,2.41H82.17l-1.23-2.3h-.1v2.3h-1Zm1,2.12h.33a1.27,1.27,0,0,0,.68-.13A.48.48,0,0,0,82,62,.51.51,0,0,0,82,61.7a.5.5,0,0,0-.25-.19,1.86,1.86,0,0,0-.57-.06h-.28Z" style="fill:#fff;fill-rule:evenodd"/><polygon points="87.03 60.44 90 60.44 90 61.45 88.06 61.45 88.06 62.43 90 62.43 90 63.42 88.06 63.42 88.06 64.85 90 64.85 90 65.86 87.03 65.86 87.03 60.44" style="fill:#fff;fill-rule:evenodd"/></g></svg>